PathFileType	4	(X/Y/Z)	Patient4_TMGait_0pt7_01_right_20.trc.trc
DataRate	CameraRate	NumFrames	NumMarkers	Units	OrigDataRate	OrigDataStartFrame	OrigNumFrames
88.050314465409	88.050314465409	4	33	mm	88.050314465409	1	       141
Frame#	Time	Sacral			L.Shoulder			Chest			R.Shoulder			Neck			R.ASIS			L.ASIS			R.Thigh.Superior			R.Thigh.Lateral			R.Thigh.Inferior			R.Patella			L.Thigh.Superior			L.Thigh.Lateral			L.Thigh.Inferior			L.Patella			L.Shank.Superior			L.Shank.Lateral			L.Shank.Inferior			R.Shank.Superior			R.Shank.Lateral			R.Shank.Inferior			R.Heel			R.Midfoot.Superior			R.Midfoot.Lateral			R.Toe			L.Heel			L.Midfoot.Lateral			L.Midfoot.Superior			L.Toe			L.Elbow			L.Wrist			R.Elbow			R.Wrist			
		X1	Y1	Z1	X2	Y2	Z2	X3	Y3	Z3	X4	Y4	Z4	X5	Y5	Z5	X6	Y6	Z6	X7	Y7	Z7	X8	Y8	Z8	X9	Y9	Z9	X10	Y10	Z10	X11	Y11	Z11	X12	Y12	Z12	X13	Y13	Z13	X14	Y14	Z14	X15	Y15	Z15	X16	Y16	Z16	X17	Y17	Z17	X18	Y18	Z18	X19	Y19	Z19	X20	Y20	Z20	X21	Y21	Z21	X22	Y22	Z22	X23	Y23	Z23	X24	Y24	Z24	X25	Y25	Z25	X26	Y26	Z26	X27	Y27	Z27	X28	Y28	Z28	X29	Y29	Z29	X30	Y30	Z30	X31	Y31	Z31	X32	Y32	Z32	X33	Y33	Z33	

1	22.410000000000	838.310361154337	1003.146359336005	434.748882820813	1018.394362416120	1434.760780780768	257.306395317060	1121.115976501161	1363.097471167991	419.051035788936	1036.662027395309	1440.101429318596	591.579799080351	1024.540532366985	1494.864018834619	411.942945799376	1067.750893030624	947.028371163125	552.246661968253	1054.091067895879	964.334400491588	278.073090254942	1154.357861129673	780.581287956916	528.844195290266	1117.211321741644	659.340849677019	604.711239505647	1211.532954955903	621.881772147383	529.017546395004	1231.490420097147	506.432045226727	553.595074384151	1104.428137576898	751.324623165250	306.186201118828	1012.644214101072	635.263299962024	251.518133049694	1096.054391694088	556.515535485600	314.493468725285	1095.338242433635	486.588006703554	326.943858290546	1065.074708069608	414.406148630358	319.954038787123	971.262883998203	303.939367453068	269.065122518290	1013.315700513271	191.473630317299	342.902364062647	1150.027182433687	434.759305874222	561.152180665007	1023.549207188115	406.502561019536	617.368488805472	1003.285196701714	296.849046869199	572.719638692143	805.257714970247	264.521814128453	535.358715462322	954.483727268298	171.202965574112	589.000770865870	844.046857536096	192.733884551566	611.392586101426	988.324335835304	44.637698532566	615.010618056807	878.968848521626	38.886620944576	383.612538942186	952.666296901180	35.763425741067	302.515715697662	1035.872662224793	95.880820051745	330.133120274505	1164.571246042662	42.302189590204	300.077944342798	1007.972247061158	1086.433966864640	129.066682098137	1183.824063348007	893.640890954793	144.685201438381	970.115219001106	1099.335242732349	705.078770760226	1169.393365711585	936.694619800531	671.289743257084	
2	22.421357142857	837.931701143431	1003.639810182624	433.519386407875	1020.173526027806	1435.188402503652	256.288575969027	1121.447467301874	1363.273132587766	418.701769447761	1036.098912547259	1440.553511046528	590.669818389629	1025.011139897726	1495.246854646737	410.881518510896	1066.975536738669	947.823194657593	551.865975862632	1054.030159300696	964.681619058655	277.638810932136	1155.806005610281	784.648796637569	527.450949701857	1121.825100208514	662.783548348176	603.768145157485	1216.137871884714	627.065582489881	527.466272621349	1239.163938259494	512.637612935399	552.127021491367	1101.389119608085	750.522723157126	306.188109364648	1007.925361554262	635.646520264348	250.823715217022	1089.884588589098	555.788347496077	313.765571358583	1087.994051609004	485.958727014350	326.245003420221	1057.709069077105	414.269423702658	319.187543349229	963.394161026227	304.158587088669	268.571537010657	1005.153625813235	191.508498102972	342.413117306720	1160.373053675937	438.385199209625	559.743001344723	1035.625803223247	404.884123559404	616.268579474947	1019.799820638341	294.751807680385	571.341847863066	823.101470238807	253.281816099568	535.349357725786	976.981127483263	167.918562582788	587.107252868092	866.145110218015	183.493946311114	610.522590263263	1017.477904894084	43.592193177644	611.917500418281	870.568820947762	39.075515964850	383.564863792914	944.265729720636	35.744026843043	302.544792917085	1027.566498255776	95.868412285971	329.923185596731	1156.219046430746	42.082115872187	299.997665500051	1017.710889598168	1088.193658977993	126.349639161454	1203.431821469246	907.384601632559	144.673507633921	965.472054321878	1100.587884960790	704.679278892937	1146.524441176641	921.082939177831	676.772335199993	
3	22.432714285714	837.562340651024	1004.112923113465	432.334980019610	1021.934872196492	1435.585993075492	255.309219632856	1121.785402845166	1363.417603749097	418.375900422368	1035.568936324764	1440.969146726721	589.790992923660	1025.484393603487	1495.602633225753	409.855779324431	1066.216502817234	948.568907588765	551.492325923813	1053.939312604878	964.991369653977	277.240457709244	1157.196399393958	788.593869856274	526.094226363283	1126.316784763473	666.128290072338	602.850179065152	1220.596391772514	632.096397857336	525.953608731843	1246.581080828687	518.697685720771	550.719565032828	1098.390453472052	749.721614962369	306.170968197147	1003.259326211176	636.026442845986	250.133653524897	1083.772219144418	555.071243973266	313.043874361861	1080.729671168036	485.355363908714	325.544123872651	1050.430800776001	414.140764579405	318.423167378450	955.618731911997	304.375301289916	268.084154139831	997.103784373689	191.548597717362	341.928494893198	1170.506761346372	441.896311842676	558.370564687459	1047.560363579842	403.105393439440	615.225650563151	1036.182517417462	292.529408774875	570.008731287015	840.888089278087	241.925645507728	535.394123708257	999.358739641623	164.520171078046	585.264512247305	888.171931699954	174.157008292463	609.697082281113	1046.474788569069	42.474535875145	608.869012372623	862.282314842951	39.265438617935	383.514610067357	935.975299700620	35.729828099457	302.572686469568	1019.369606856735	95.859229500938	329.716782841759	1147.973597792106	41.868017298479	299.917324332192	1027.286643678529	1089.944400510719	123.706727125895	1222.638920526721	921.086704399505	144.715677488226	960.893715079362	1101.809836331694	704.343067540175	1123.720021443530	906.043994114339	682.182076761663	
4	22.444071428571	837.224818577317	1004.537733253068	431.240435316905	1023.674036704051	1435.915940416882	254.416093561621	1122.148716476151	1363.488198591054	418.104833934565	1035.117414859266	1441.301423585468	588.983992427619	1025.980042443537	1495.893180691524	408.910800933134	1065.502401409986	949.205018586559	551.138903871903	1053.821656543564	965.229211846054	276.893972125912	1158.453987959660	792.246822258776	524.813209677805	1130.514846354450	669.227499700877	601.985546900812	1224.711086489458	636.761836193968	524.517331375883	1253.451940409037	524.446184929054	549.407472070885	1095.439392494315	748.905133749982	306.117831059377	998.643368688417	636.400192124445	249.452522817186	1077.706117173650	554.363811784670	312.331835445152	1073.547480095256	484.795303655649	324.835346467472	1043.242307346118	414.025234312759	317.663135789587	947.940279010152	304.590277547391	267.610987360781	989.187209880373	191.599906730980	341.454356623176	1180.236469937488	445.172647632113	557.063148964103	1059.328808828335	400.971977257061	614.312032199038	1052.484407850771	290.061713065385	568.769436496363	858.891064962174	230.230488498231	535.568425669446	1021.781144274819	160.945849922975	583.530698129281	910.401553149370	164.608513526362	608.981977590254	1075.491490908432	41.374161516496	605.922654671601	854.126919806591	39.460034645427	383.461539895393	927.808910377506	35.726922946753	302.599679917541	1011.296182017739	95.855289699908	329.517697897315	1139.845190876886	41.663810914695	299.837269659327	1036.614538289858	1091.702056852662	121.195993426521	1241.134986081738	934.859478188512	144.885878835377	956.358391707305	1103.013335121672	704.132981217910	1100.907831328699	892.155244575461	687.423345602503	
